<?xml version="1.0" standalone="no"?>
<!DOCTYPE svg PUBLIC "-//W3C//DTD SVG 20010904//EN"
 "http://www.w3.org/TR/2001/REC-SVG-20010904/DTD/svg10.dtd">
<svg version="1.0" xmlns="http://www.w3.org/2000/svg"
 width="1044.000000pt" height="1044.000000pt" viewBox="0 0 1044.000000 1044.000000"
 preserveAspectRatio="xMidYMid meet">
<metadata>
Created by potrace 1.16, written by Peter Selinger 2001-2019
</metadata>
<g transform="translate(0.000000,1044.000000) scale(0.100000,-0.100000)"
fill="#000000" stroke="none">
<path d="M0 5220 l0 -5220 5220 0 5220 0 0 5220 0 5220 -5220 0 -5220 0 0
-5220z m5379 2839 c77 -27 133 -62 188 -118 l48 -49 1252 -2158 1251 -2159 15
-51 c9 -29 18 -76 22 -105 l6 -54 -15 -73 c-37 -176 -156 -312 -327 -374 l-64
-23 -1765 -2 c-971 -2 -2121 0 -2556 5 l-791 7 -85 42 -86 43 -50 55 c-28 30
-66 86 -85 124 l-35 70 -12 70 -12 71 12 67 c6 38 21 91 33 120 12 28 580
1013 1262 2188 l1240 2137 54 54 53 54 72 35 71 35 60 9 c77 12 175 3 244 -20z"/>
</g>
</svg>
